<?xml version="1.0" encoding="UTF-8"?>
<!DOCTYPE svg PUBLIC "-//W3C//DTD SVG 1.1//EN" "http://www.w3.org/Graphics/SVG/1.1/DTD/svg11.dtd">
<!-- Creator: CorelDRAW X8 -->
<svg xmlns="http://www.w3.org/2000/svg" xml:space="preserve" width="1000mm" height="436.741mm" version="1.1" style="shape-rendering:geometricPrecision; text-rendering:geometricPrecision; image-rendering:optimizeQuality; fill-rule:evenodd; clip-rule:evenodd"
viewBox="0 0 142727 62335"
 xmlns:xlink="http://www.w3.org/1999/xlink">
 <defs>
  <style type="text/css">
   <![CDATA[
    .fil13 {fill:#FEFEFE}
    .fil11 {fill:#D0CFCE}
    .fil12 {fill:#797675}
    .fil9 {fill:#4E4C4A}
    .fil16 {fill:#6BB970}
    .fil2 {fill:#0C7D43}
    .fil15 {fill:#064A29}
    .fil17 {fill:#252322;fill-rule:nonzero}
    .fil7 {fill:url(#id0)}
    .fil3 {fill:url(#id1)}
    .fil1 {fill:url(#id2)}
    .fil14 {fill:url(#id3)}
    .fil0 {fill:url(#id4)}
    .fil10 {fill:url(#id5)}
    .fil6 {fill:url(#id6)}
    .fil5 {fill:url(#id7)}
    .fil8 {fill:url(#id8)}
    .fil4 {fill:url(#id9)}
   ]]>
  </style>
  <linearGradient id="id0" gradientUnits="userSpaceOnUse" x1="119128" y1="13970.3" x2="120694" y2="48364.3">
   <stop offset="0" style="stop-opacity:1; stop-color:#A3A1A1"/>
   <stop offset="0.6" style="stop-opacity:1; stop-color:#8E8C8B"/>
   <stop offset="1" style="stop-opacity:1; stop-color:#797675"/>
  </linearGradient>
  <linearGradient id="id1" gradientUnits="userSpaceOnUse" x1="20518.8" y1="46089.5" x2="20518.8" y2="16911.8">
   <stop offset="0" style="stop-opacity:1; stop-color:#6BB970"/>
   <stop offset="1" style="stop-opacity:1; stop-color:#0C7D43"/>
  </linearGradient>
  <linearGradient id="id2" gradientUnits="userSpaceOnUse" x1="24963.3" y1="13153.5" x2="24963.3" y2="49181.2">
   <stop offset="0" style="stop-opacity:1; stop-color:#6BB970"/>
   <stop offset="1" style="stop-opacity:1; stop-color:#064A29"/>
  </linearGradient>
  <linearGradient id="id3" gradientUnits="userSpaceOnUse" x1="62054.1" y1="-782.085" x2="53848.2" y2="18000.1">
   <stop offset="0" style="stop-opacity:1; stop-color:#108F4D"/>
   <stop offset="1" style="stop-opacity:1; stop-color:#4FB160"/>
  </linearGradient>
  <linearGradient id="id4" gradientUnits="userSpaceOnUse" x1="22816" y1="13963.8" x2="22816" y2="48370.8">
   <stop offset="0" style="stop-opacity:1; stop-color:#45AD58"/>
   <stop offset="1" style="stop-opacity:1; stop-color:#0E8F4D"/>
  </linearGradient>
  <linearGradient id="id5" gradientUnits="userSpaceOnUse" x1="82236.9" y1="45163.2" x2="87314.3" y2="62288.3">
   <stop offset="0" style="stop-opacity:1; stop-color:#4E4C4A"/>
   <stop offset="1" style="stop-opacity:1; stop-color:#D0CFCE"/>
  </linearGradient>
  <linearGradient id="id6" gradientUnits="userSpaceOnUse" x1="117763" y1="13153.5" x2="117763" y2="49181.2">
   <stop offset="0" style="stop-opacity:1; stop-color:#D0CFCE"/>
   <stop offset="1" style="stop-opacity:1; stop-color:#4E4C4A"/>
  </linearGradient>
  <linearGradient id="id7" gradientUnits="userSpaceOnUse" x1="120996" y1="46928.2" x2="129115" y2="46928.2">
   <stop offset="0" style="stop-opacity:1; stop-color:#797675"/>
   <stop offset="1" style="stop-opacity:1; stop-color:#D0CFCE"/>
  </linearGradient>
  <linearGradient id="id8" gradientUnits="userSpaceOnUse" xlink:href="#id5" x1="104781" y1="30834" x2="139635" y2="30834">
  </linearGradient>
  <linearGradient id="id9" gradientUnits="userSpaceOnUse" xlink:href="#id1" x1="43871.9" y1="45279.1" x2="43871.9" y2="49181.2">
  </linearGradient>
 </defs>
 <g id="Warstwa_x0020_1">
  <metadata id="CorelCorpID_0Corel-Layer"/>
  <g id="Logo">
   <g id="Hak_x0020_Zielony">
    <path class="fil0" d="M3092 31167c0,-6534 4306,-12324 10520,-14255l5099 -2948 -697 0c-9461,0 -17204,7743 -17204,17203 0,9461 7744,17204 17204,17204l26808 0 -7005 -2281 -19803 0c-8209,0 -14922,-6714 -14922,-14923z"/>
    <path class="fil1" d="M18711 13964l3020 -811 -3717 0c-9908,0 -18014,8107 -18014,18014 0,9908 8106,18014 18014,18014l31913 0 -5105 -810 -26808 0c-9460,0 -17204,-7743 -17204,-17204 0,-9460 7743,-17203 17204,-17203l697 0z"/>
    <polygon class="fil2" points="13938,17659 21731,13153 18711,13964 13612,16912 "/>
    <path class="fil3" d="M13938 17659l-326 -747c-6214,1931 -10520,7721 -10520,14255 0,8209 6713,14923 14922,14923l19803 0 129 -811 -19932 0c-7762,0 -14112,-6350 -14112,-14112 0,-6345 4245,-11748 10036,-13508z"/>
    <polygon class="fil4" points="49927,49181 37946,45279 37817,46090 44822,48371 "/>
   </g>
   <g id="Hak_x0020_Szary">
    <polygon class="fil5" points="128789,44675 120996,49181 124016,48371 129115,45423 "/>
    <path class="fil6" d="M141916 31167c0,9461 -7743,17204 -17203,17204l-697 0 -3020 810 3717 0c9908,0 18014,-8106 18014,-18014 0,-9907 -8106,-18014 -18014,-18014l-31913 0 5105 811 26808 0c9460,0 17203,7743 17203,17203z"/>
    <path class="fil7" d="M129115 45423l-5099 2948 697 0c9460,0 17203,-7743 17203,-17204 0,-9460 -7743,-17203 -17203,-17203l-282 0 -26526 0 7005 2281 19803 0c8209,0 14922,6714 14922,14922 0,6535 -4306,12324 -10520,14256z"/>
    <path class="fil8" d="M138825 31167c0,6346 -4245,11749 -10036,13508l326 748c6214,-1932 10520,-7721 10520,-14256 0,-8208 -6713,-14922 -14922,-14922l-19803 0 -129 811 19932 0c7761,0 14112,6350 14112,14111z"/>
    <polygon class="fil9" points="104910,16245 97905,13964 92800,13153 104781,17056 "/>
   </g>
   <g id="Trojkat_x0020_Szary">
    <polygon class="fil10" points="95013,61362 121428,46090 48123,46090 "/>
    <polygon class="fil11" points="42846,45279 48123,46090 121428,46090 124713,45279 "/>
    <polygon class="fil12" points="121428,46090 95013,61362 95213,62335 124713,45279 "/>
    <polygon class="fil9" points="95013,61362 48123,46090 42846,45279 95213,62335 "/>
    <g id="Driller">
     <path class="fil13" d="M88904 53909c-171,1360 -158,2723 38,4089 359,-206 718,-206 1077,0 197,-1366 209,-2729 38,-4089l-1153 0z"/>
     <path class="fil13" d="M89481 58718l540 0c223,0 248,-35 122,-288 -236,-475 -1089,-475 -1325,0 -126,253 -101,288 123,288l540 0z"/>
     <path class="fil13" d="M89035 47757l901 0 0 3048c41,20 83,44 125,70 241,151 226,207 193,457 -20,147 -58,330 -115,547 130,301 146,527 49,678 40,190 19,377 -63,561 58,204 25,395 -97,571l-1095 0c-122,-176 -154,-367 -96,-571 -82,-184 -103,-371 -63,-561 -98,-151 -82,-377 48,-678 -57,-217 -95,-400 -115,-547 -33,-250 -48,-306 193,-457 45,-28 90,-53 135,-75l0 -3043z"/>
     <path class="fil13" d="M86415 47874l-818 0c-442,0 -803,362 -803,803l0 441c0,442 361,803 803,803l818 0 0 -2047z"/>
     <path class="fil13" d="M87916 49759l0 68c0,160 130,290 290,290l610 0 0 -2439 -610 0c-160,0 -290,131 -290,290l0 68 -360 0 0 -162 -1015 0 0 2047 1015 0 0 -162 360 0z"/>
     <path class="fil13" d="M94263 49636l1636 0 0 562 -1636 0c-88,0 -160,-72 -160,-160l0 -242c0,-88 72,-160 160,-160z"/>
     <path class="fil13" d="M92442 48373c35,-21 80,-9 100,26l472 818c20,35 8,80 -27,100 -35,20 -80,8 -100,-27l-472 -818c-20,-34 -8,-79 27,-99zm-314 26l607 1051c20,35 8,80 -27,100 -35,20 -80,8 -100,-27l-607 -1051c-20,-34 -8,-79 27,-99 35,-21 80,-9 100,26zm-399 0l607 1051c20,35 8,80 -27,100 -35,20 -80,8 -100,-27l-607 -1051c-20,-34 -8,-79 27,-99 35,-21 80,-9 100,26zm-363 0l607 1051c20,35 8,80 -27,100 -35,20 -80,8 -100,-27l-607 -1051c-20,-34 -8,-79 27,-99 35,-21 80,-9 100,26zm-394 0l607 1051c20,35 8,80 -27,100 -35,20 -80,8 -100,-27l-607 -1051c-20,-34 -8,-79 27,-99 35,-21 80,-9 100,26zm-391 0l606 1051c21,35 9,80 -26,100 -35,20 -80,8 -100,-27l-607 -1051c-20,-34 -8,-79 27,-99 35,-21 80,-9 100,26zm2720 0l177 307c20,35 8,80 -27,100 -35,21 -79,8 -100,-26l-177 -308c-20,-34 -8,-79 27,-99 35,-21 80,-9 100,26zm-110 484c20,35 8,80 -27,100 -35,20 -80,8 -100,-27l-279 -484c-20,-34 -8,-79 27,-99 35,-21 79,-9 100,26l279 484zm-2653 -1372c-179,-1 -309,55 -392,168l0 2472c18,51 39,96 63,133l856 102c236,37 408,137 518,300l1404 2516 0 1650 34 9c937,226 1904,317 2867,311l1473 -416 40 -12 0 -4107c-139,-1137 -597,-2179 -1374,-3126l-5489 0zm3372 2406c0,-781 632,-1413 1413,-1413 780,0 1413,632 1413,1413 0,780 -633,1413 -1413,1413 -781,0 -1413,-633 -1413,-1413z"/>
     <path class="fil13" d="M97411 55046l-1463 413 -19 5 -19 0c-984,8 -1971,-83 -2928,-312 -14,815 204,1369 654,1661 1027,299 2241,432 3639,397 335,-108 806,-382 1413,-823 -340,-183 -666,-428 -977,-736 -170,-194 -270,-395 -300,-605z"/>
     <path class="fil13" d="M97866 50609l0 4293c-2,165 79,308 184,431 256,251 542,474 859,645l32 17 913 -1418c345,-304 1113,-505 2304,-600 464,-1104 353,-2856 -334,-5256 -56,-244 -35,-455 63,-634 66,-126 21,-216 -136,-271 -1426,-207 -3138,-310 -5138,-309 676,911 1110,1935 1249,3074l4 28zm1240 2088l-881 -3010 30 -644c419,-163 767,-241 1045,-232 146,37 247,200 305,488l629 1622c128,141 208,260 242,358 164,432 269,747 315,944 -34,286 -202,502 -504,648 -634,165 -1027,107 -1181,-174z"/>
     <path class="fil13" d="M101668 54933c160,-223 285,-468 377,-735 -441,-19 -919,52 -1432,213 3,170 27,310 72,421 616,76 943,110 983,101z"/>
     <path class="fil13" d="M94437 49563l1462 0c40,0 73,33 73,73l0 562c0,40 -33,73 -73,73l-1462 0c141,351 484,599 886,599 526,0 953,-427 953,-953 0,-527 -427,-954 -953,-954 -402,0 -745,249 -886,600z"/>
     <path class="fil13" d="M83094 49097c465,-10 774,-170 928,-482l-450 0c-41,197 -200,358 -478,482z"/>
     <path class="fil13" d="M82499 49097c464,-10 774,-170 927,-482l-449 0c-42,197 -201,358 -478,482z"/>
     <path class="fil13" d="M81903 49097c464,-10 774,-170 927,-482l-449 0c-42,197 -201,358 -478,482z"/>
     <path class="fil13" d="M81307 49097c465,-10 774,-170 928,-482l-450 0c-41,197 -201,358 -478,482z"/>
     <path class="fil13" d="M80711 49097c465,-10 774,-170 928,-482l-450 0c-41,197 -201,358 -478,482z"/>
     <path class="fil13" d="M80115 49097c465,-10 774,-170 928,-482l-450 0c-41,197 -200,358 -478,482z"/>
     <path class="fil13" d="M79519 49097c465,-10 774,-170 928,-482l-450 0c-41,197 -200,358 -478,482z"/>
     <path class="fil13" d="M78924 49097c464,-10 774,-170 927,-482l-449 0c-42,197 -201,358 -478,482z"/>
     <path class="fil13" d="M78328 49097c464,-10 774,-170 927,-482l-449 0c-42,197 -201,358 -478,482z"/>
     <path class="fil13" d="M74157 49097c465,-10 774,-170 928,-482l-450 0c-41,197 -201,358 -478,482z"/>
     <path class="fil13" d="M74200 48995c162,-106 258,-233 289,-380l-221 0 -393 0c-75,66 -135,147 -181,241 31,64 69,121 114,173 17,19 34,37 53,55l14 13 136 0c69,-31 131,-64 186,-100 -1,0 -1,0 -1,0 1,-1 3,-1 4,-2z"/>
     <path class="fil13" d="M83691 49096l905 0 0 -481 -450 0c-40,192 -192,349 -456,472l0 9 1 0z"/>
     <path class="fil13" d="M77732 49097c465,-10 774,-170 928,-482l-450 0c-41,197 -201,358 -478,482z"/>
     <path class="fil13" d="M77136 49097c465,-10 774,-170 928,-482l-450 0c-41,197 -201,358 -478,482z"/>
     <path class="fil13" d="M76540 49097c465,-10 774,-170 928,-482l-450 0c-41,197 -200,358 -478,482z"/>
     <path class="fil13" d="M75944 49097c465,-10 774,-170 928,-482l-450 0c-41,197 -200,358 -478,482z"/>
     <path class="fil13" d="M75349 49097c464,-10 774,-170 927,-482l-449 0c-42,197 -201,358 -478,482z"/>
     <path class="fil13" d="M74753 49097c464,-10 774,-170 927,-482l-449 0c-42,197 -201,358 -478,482z"/>
     <path class="fil13" d="M101026 56362l464 -1253c-46,-5 -88,-10 -116,-13 -208,-21 -416,-46 -623,-72l-184 1215c300,81 453,122 459,123z"/>
    </g>
   </g>
   <g id="Trojkat_x0020_Zielony">
    <polygon class="fil14" points="47713,973 21299,16245 94604,16245 "/>
    <polygon class="fil2" points="18014,17056 21299,16245 47713,973 47514,0 "/>
    <polygon class="fil15" points="21299,16245 18014,17056 99881,17056 94604,16245 "/>
    <polygon class="fil16" points="47713,973 94604,16245 99881,17056 47514,0 "/>
    <g id="Chainsaw">
     <path class="fil13" d="M37723 10299l2098 -858c-600,19 -1181,74 -1743,166 -258,150 -376,381 -355,692z"/>
     <path class="fil13" d="M40228 10866l-445 132c70,281 190,501 359,661 58,-8 115,-64 172,-168 184,-244 382,-403 593,-479 -154,-97 -337,-147 -550,-150 -42,0 -85,1 -129,4z"/>
     <path class="fil13" d="M64673 9346l-12946 0c-139,267 -295,525 -465,773l31 0 1055 0 12325 0c189,0 347,158 347,347 0,190 -158,348 -347,348l-12325 0 -1055 0 -513 0c29,25 54,53 74,85l26 43 5 51c17,194 28,393 28,593l13760 0c616,0 1120,-504 1120,-1120 0,-616 -504,-1120 -1120,-1120z"/>
     <path class="fil13" d="M53697 11741l-592 0 0 -1 -380 0 0 1 -592 0 0 -1 -380 0 0 1 -725 0 -117 0c-1,51 -3,103 -6,154l781 0c-67,98 -179,182 -336,252 306,-6 532,-90 679,-252l629 0c-67,98 -180,182 -337,252 307,-6 533,-90 679,-252l630 0c-68,98 -180,182 -337,252 306,-6 533,-90 679,-252l630 0c-68,98 -180,182 -337,252 306,-6 533,-90 679,-252l629 0c-67,98 -179,182 -336,252 306,-6 532,-90 679,-252l629 0c-67,98 -180,182 -337,252 307,-6 533,-90 679,-252l630 0c-68,98 -180,182 -337,252 307,-6 533,-90 679,-252l630 0c-68,98 -180,182 -337,252 306,-6 533,-90 679,-252l629 0c-67,98 -179,182 -336,252 306,-6 532,-90 679,-252l629 0c-67,98 -180,182 -336,252 306,-6 532,-90 679,-252l629 0c-68,98 -180,182 -337,252 307,-6 533,-90 679,-252l630 0c-68,98 -180,182 -337,252 306,-6 533,-90 679,-252l629 0c-67,98 -179,182 -336,252 306,-6 532,-90 679,-252l629 0c-67,98 -179,182 -336,252 306,-6 532,-90 679,-252l11 0c208,0 407,-45 586,-126 5,127 -44,268 -145,424 261,-177 406,-377 435,-600 117,-91 219,-200 303,-322 90,100 139,251 149,451 108,-295 110,-542 4,-740 57,-147 91,-305 96,-471 121,47 233,151 336,313 -52,-311 -174,-526 -365,-646 -30,-147 -84,-287 -156,-414 126,-21 273,10 442,92 -204,-234 -417,-354 -638,-359 -99,-108 -215,-200 -343,-273 100,-78 242,-122 428,-132 -296,-107 -543,-107 -741,0 -124,-36 -256,-55 -391,-55l-244 0c68,-98 180,-182 337,-252 -306,6 -533,90 -679,252l-630 0c68,-98 180,-182 337,-252 -306,6 -533,90 -679,252l-629 0c67,-98 179,-182 337,-252 -307,6 -534,90 -680,252l-629 0c67,-98 180,-182 337,-252 -307,6 -533,90 -680,252l-629 0c68,-98 180,-182 337,-252 -307,6 -533,90 -679,252l-630 0c68,-98 180,-182 337,-252 -306,6 -533,90 -679,252l-629 0c67,-98 179,-182 337,-252 -307,6 -534,90 -680,252l-629 0c67,-98 180,-182 337,-252 -307,6 -533,90 -680,252l-629 0c68,-98 180,-182 337,-252 -307,6 -533,90 -679,252l-630 0c68,-98 180,-182 337,-252 -306,6 -533,90 -679,252l-629 0c67,-98 179,-182 337,-252 -307,6 -534,90 -680,252l-629 0c67,-98 180,-182 337,-252 -307,6 -533,90 -680,252l-629 0c68,-98 180,-182 337,-252 -307,6 -533,90 -679,252l-548 0c-24,52 -48,104 -73,155l516 0 380 0 592 0 380 0 592 0 380 0 592 0 380 0 592 0 379 0 592 0 380 0 592 0 380 0 592 0 380 0 592 0 379 0 592 0 380 0 592 0 380 0 592 0 380 0 592 0 380 0 310 0c701,0 1274,573 1274,1274 0,689 -553,1254 -1237,1274l-324 0 0 1 -592 0 0 -1 -380 0 0 1 -592 0 1 -1 -380 0 0 1 -592 0 0 -1 -380 0 0 1 -592 0 0 -1 -380 0 0 1 -592 0 0 -1 -380 0 0 1 -592 0 1 -1 -380 0 0 1 -592 0 0 -1 -380 0 0 1 -592 0 0 -1 -380 0 0 1 -592 0 0 -1 -380 0 0 1 -592 0 1 -1 -380 0 0 1 -592 0 0 -1 -380 0 0 1z"/>
     <path class="fil13" d="M42427 13542l-486 -842c-85,91 -137,213 -137,348 0,280 227,507 507,507 40,0 79,-4 116,-13z"/>
     <path class="fil13" d="M42195 12554l486 841c86,-90 138,-213 138,-347 0,-280 -227,-508 -508,-508 -40,0 -78,5 -116,14z"/>
     <polygon class="fil13" points="42645,13425 42152,12570 41978,12671 42471,13525 "/>
     <path class="fil13" d="M42697 7312c-100,38 -211,96 -288,172 -21,20 -79,84 -66,118 13,33 99,43 127,45 108,6 230,-24 330,-61 101,-38 211,-96 288,-172 21,-20 79,-84 66,-118 -12,-33 -98,-43 -127,-45 -108,-6 -229,23 -330,61z"/>
     <path class="fil13" d="M42591 10525l-315 0 -916 253 -335 -253 -118 -1174c39,-224 121,-502 245,-834 31,-83 43,-164 37,-245 -192,57 -416,403 -675,1039l-3777 1545c-252,160 -388,344 -409,552l119 629 352 1611 6045 744 -12 -556 307 -176c31,-690 -17,-1312 -143,-1864l245 -110 -143 -724c-114,-167 -283,-312 -507,-437zm-5446 1451l0 0zm4089 -757c29,89 57,174 83,255 172,540 257,915 256,1127 -213,412 -576,678 -1088,800l-3112 -383 -228 -1042c-39,-210 59,-352 295,-425l2788 -826c44,-3 87,-5 129,-4 393,5 686,171 877,498zm1077 1223c335,0 607,271 607,606 0,335 -272,606 -607,606 -335,0 -606,-271 -606,-606 0,-335 271,-606 606,-606z"/>
     <path class="fil13" d="M49363 7754c70,763 141,1527 208,2291l16 174 38 432 4 44 69 789 194 2196 107 -125c-10,12 59,12 204,0l340 -818c145,-466 188,-1041 126,-1725 -31,-51 -122,-101 -271,-148 570,-633 1010,-1298 1318,-1994 107,-47 192,-132 253,-253 346,-837 523,-1969 532,-3397 -70,-326 -213,-634 -429,-924 -56,-97 -156,-143 -299,-139 -100,38 -165,95 -196,172l-630 2191 -1518 1012 -81 54 15 168zm2427 -345l-611 -897 438 -1635c234,243 374,526 419,848 0,513 -123,1224 -246,1684z"/>
     <path class="fil13" d="M49579 14124c-243,169 -507,247 -789,188l32 604c289,277 549,262 781,-45l-24 -747z"/>
     <path class="fil13" d="M48699 14126c317,116 602,25 864,-182l40 -32 -340 -3840 -274 -3013c-22,-261 -42,-746 -61,-1455 -92,-245 -241,-380 -445,-405 -185,-30 -391,72 -618,307l-1140 1333c-89,-54 -175,-111 -260,-172 -68,-50 -136,-101 -202,-155l-1153 0c-450,336 -903,546 -1357,629 -186,45 -359,95 -521,150 16,115 -157,274 -405,367 -176,67 -347,83 -453,51 -446,313 -698,712 -755,1198l-53 1300 160 119 85 7 383 -106c28,-8 53,-11 82,-11l315 0c55,0 102,12 150,39 81,45 160,94 235,149 -4,-15 -7,-30 -7,-46l-4 -229c-1,-54 18,-100 57,-138 39,-37 87,-54 140,-51l1233 79 756 -347c21,-331 58,-665 123,-989 18,-89 94,-150 185,-149 814,12 1636,297 2363,648 37,18 65,45 83,81l-118 -1217 -4 -41 -1 -13 -30 -549 -8 -146c-72,-22 -144,-46 -214,-71l487 -625 73 1374 597 6125c-6,0 -2,9 12,26z"/>
     <path class="fil13" d="M47250 11508l-83 0 -41 -59 -41 -59 41 -59 41 -59 83 0 83 0 41 59 42 59 -42 59 -41 59 -83 0zm-328 -168l-83 0 -41 -59 -41 -58 41 -59 41 -59 83 0 83 0 41 59 42 59 -42 58 -41 59 -83 0zm1454 2750l-340 -3487 -73 -754 -50 -30 -172 -470c-848,-410 -1610,-620 -2285,-630 -62,307 -104,665 -127,1075l-899 413 -1280 -82 4 229 401 113 65 18c51,111 40,204 -32,278 -86,37 -173,13 -262,-73l6 67 21 31c25,36 39,71 48,114l143 724c28,142 -44,282 -176,341l-20 9c102,558 125,1133 99,1698 -4,109 -60,200 -155,254l-147 84 8 373c1,15 0,30 -2,44l711 88 1725 130 2771 57 126 -335 -1 -21 -8 -9c-62,-70 -101,-159 -99,-249zm-1699 -2917l-83 0 -82 0 -42 -59 -41 -59 41 -59 42 -59 82 0 83 0 41 59 42 59 -42 59 -41 59zm573 0l-83 0 -41 -59 -41 -59 41 -59 41 -59 83 0 83 0 41 59 42 59 -42 59 -41 59 -83 0zm-901 -167l-83 0 -82 0 -42 -59 -41 -59 41 -59 42 -59 82 0 83 0 42 59 41 59 -41 59 -42 59zm83 -453l-41 59 -42 59 -83 0 -82 0 -42 -59 -41 -59 41 -59 42 -59 82 0 83 0 42 59 41 59zm38 -109l-41 -59 41 -58 42 -59 82 0 83 0 41 59 42 58 -42 59 -41 59 -83 0 -82 0 -42 -59zm124 -276l-82 0 -42 -58 -41 -59 41 -59 42 -59 82 0 83 0 41 59 42 59 -42 59 -41 58 -83 0zm83 -334l-83 0 -82 0 -42 -59 -41 -59 41 -59 42 -59 82 0 83 0 41 59 42 59 -42 59 -41 59zm83 -453l-42 59 -41 59 -83 0 -82 0 -42 -59 -41 -59 41 -59 42 -59 82 0 83 0 41 59 42 59zm-576 955l-42 -59 -41 -59 41 -59 42 -59 82 0 83 0 42 59 41 59 -41 59 -42 59 -83 0 -82 0zm82 -335l-82 0 -42 -59 -41 -59 41 -59 42 -59 82 0 83 0 42 59 41 59 -41 59 -42 59 -83 0zm83 -335l-83 0 -82 0 -42 -59 -41 -59 41 -59 42 -59 82 1 83 0 42 58 41 59 -41 59 -42 59zm0 -335l-83 0 -82 0 -42 -59 -41 -59 41 -58 42 -59 82 0 83 0 42 59 41 58 -41 59 -42 59zm573 1675l-83 0 -41 -59 -41 -59 41 -59 41 -59 83 0 83 0 41 59 42 59 -42 59 -41 59 -83 0zm-245 -168l-83 0 -82 0 -42 -59 -41 -59 41 -59 42 -59 82 0 83 0 41 59 42 59 -42 59 -41 59zm162 -167l-41 -59 -41 -59 41 -59 41 -59 83 0 83 0 41 59 42 59 -42 59 -41 59 -83 0 -83 0zm166 -335l-83 0 -83 0 -41 -59 -41 -59 41 -59 41 -59 83 0 83 0 41 59 42 59 -42 59 -41 59zm0 -335l-83 0 -83 0 -41 -59 -41 -59 41 -59 41 -59 83 0 83 0 41 59 42 59 -42 59 -41 59zm0 -335l-83 0 -83 0 -41 -59 -41 -59 41 -59 41 -58 83 0 83 0 41 58 42 59 -42 59 -41 59zm245 1172l-83 0 -41 -59 -41 -59 41 -59 41 -59 83 0 83 0 41 59 42 59 -42 59 -41 59 -83 0zm0 -335l-83 0 -41 -59 -41 -59 41 -58 41 -59 83 0 83 0 41 59 42 58 -42 59 -41 59 -83 0zm0 -335l-83 0 -41 -58 -41 -59 41 -59 41 -59 83 0 83 0 41 59 42 59 -42 59 -41 59 -83 -1zm83 -334l-83 0 -83 0 -41 -59 -41 -59 41 -59 41 -59 83 0 83 0 41 59 42 59 -42 59 -41 59z"/>
    </g>
   </g>
   <path id="plantiko" class="fil17" d="M18285 43249l3911 0 1004 -6769c791,1344 2179,2091 4084,2091 3835,0 6752,-2713 7354,-6769 613,-4131 -1568,-6893 -5403,-6893 -1854,0 -3463,746 -4628,2090l292 -1966 -3911 0 -2703 18216zm5628 -11571c321,-2166 1943,-3684 3950,-3684 2006,0 3149,1543 2831,3684 -325,2189 -1922,3708 -3928,3708 -2006,0 -3182,-1494 -2853,-3708zm12460 6744l3911 0 2740 -18466 -3911 0 -2740 18466zm7350 -4007c-362,2439 1158,4181 4078,4181 1905,0 3471,-622 4551,-1742l-233 1568 3835 0 1271 -8735c422,-3012 -1420,-4803 -5078,-4803 -2387,0 -4221,547 -6400,1543l827 2638c1537,-772 3019,-1170 4238,-1170 1879,0 2722,821 2512,2240l-37 248 -3759 0c-3356,25 -5432,1518 -5805,4032l0 0zm3694 -249c159,-1070 962,-1518 2461,-1518l3073 0 -178 1195c-398,1144 -1823,2015 -3473,2015 -1321,0 -2034,-672 -1883,-1692l0 0zm11915 4256l3911 0 979 -6595c292,-1966 1674,-3410 3634,-3434 1676,0 2537,1045 2286,2737l-1083 7292 3912 0 1248 -8412c465,-3135 -1195,-5126 -4243,-5126 -2137,25 -3880,821 -5093,2488l347 -2339 -3911 0 -1987 13389zm17228 -10154l1905 0 -920 6197c-410,2762 1241,4131 3679,4131 1270,0 2592,-349 3693,-921l-396 -2812c-759,323 -1394,498 -1902,498 -842,25 -1258,-423 -1092,-1543l820 -5525 3708 0 395 -2663 -3708 0 547 -3683 -3886 0 -547 3683 -1905 0 -391 2638zm13007 -7043c-184,1245 546,2141 1791,2141 1244,0 2241,-896 2425,-2141 185,-1244 -546,-2140 -1790,-2140 -1245,0 -2241,896 -2426,2140zm-2399 17197l3911 0 1987 -13389 -3911 0 -1987 13389zm7797 0l3911 0 539 -3634 2022 -1816 2493 5450 4622 0 -4013 -8213 5768 -5151 -4445 0 -5753 5052 1507 -10154 -3911 0 -2740 18466zm14733 -6695c-605,4082 1931,6844 6324,6844 4369,0 7725,-2762 8331,-6844 609,-4106 -1935,-6818 -6303,-6818 -4394,0 -7742,2712 -8352,6818zm3929 50c325,-2190 1918,-3683 3950,-3683 2007,0 3182,1493 2857,3683 -325,2190 -1943,3683 -3950,3683 -2032,0 -3182,-1493 -2857,-3683z"/>
  </g>
 </g>
</svg>
